<svg version="1.2" xmlns="http://www.w3.org/2000/svg" viewBox="0 0 18 18" width="18" height="18">
	<title>image</title>
	<defs>
		<clipPath clipPathUnits="userSpaceOnUse" id="cp1">
			<path d="m9 13.15c-2.29 0-4.15-1.86-4.15-4.15 0-2.29 1.86-4.15 4.15-4.15 2.29 0 4.15 1.86 4.15 4.15 0 2.29-1.86 4.15-4.15 4.15z"/>
		</clipPath>
	</defs>
	<style>
		.s0 { opacity: .2;fill: #036c5f } 
		.s1 { fill: #036c5f } 
	</style>
	<path id="Layer" class="s0" d="m9 18c-5 0-9-4-9-9 0-5 4-9 9-9 5 0 9 4 9 9 0 5-4 9-9 9z"/>
	<g id="Clip-Path" clip-path="url(#cp1)">
		<g id="Layer">
			<path id="Layer" class="s1" d="m11.3 9q0-0.3-0.2-0.6l-3.6-3.6-0.8 0.9 3.3 3.3-3.3 3.3 0.8 0.9 3.6-3.6q0.2-0.3 0.2-0.6z"/>
		</g>
	</g>
</svg>