<svg width="24" height="29" viewBox="0 0 24 29" fill="none" xmlns="http://www.w3.org/2000/svg">
<path fill-rule="evenodd" clip-rule="evenodd" d="M5.66605 12.3333C5.66605 8.83552 8.50158 5.99999 11.9994 5.99999C15.4972 5.99999 18.3327 8.83552 18.3327 12.3333C18.3327 15.8311 15.4972 18.6667 11.9994 18.6667C8.50158 18.6667 5.66605 15.8311 5.66605 12.3333ZM11.9994 7.99999C9.60615 7.99999 7.66605 9.94009 7.66605 12.3333C7.66605 14.7266 9.60615 16.6667 11.9994 16.6667C14.3926 16.6667 16.3327 14.7266 16.3327 12.3333C16.3327 9.94009 14.3926 7.99999 11.9994 7.99999Z" fill="#036C5F"/>
<path fill-rule="evenodd" clip-rule="evenodd" d="M0.698533 10.8091C1.17097 5.07764 5.96051 0.666656 11.7114 0.666656H12.2873C18.0383 0.666656 22.8278 5.07764 23.3002 10.8091C23.554 13.888 22.603 16.9452 20.6474 19.3368L14.2567 27.1525C13.09 28.5793 10.9088 28.5793 9.74208 27.1525L3.35133 19.3368C1.39579 16.9452 0.444748 13.888 0.698533 10.8091ZM11.7114 2.66666C7.00137 2.66666 3.0787 6.27929 2.69177 10.9734C2.48055 13.5359 3.27208 16.0803 4.89963 18.0708L11.2904 25.8865C11.6568 26.3346 12.3419 26.3346 12.7084 25.8865L19.0991 18.0707C20.7267 16.0803 21.5182 13.5359 21.307 10.9734C20.9201 6.27929 16.9974 2.66666 12.2873 2.66666H11.7114Z" fill="#036C5F"/>
</svg>
