<svg width="26" height="21" viewBox="0 0 26 21" fill="none" xmlns="http://www.w3.org/2000/svg">
<path fill-rule="evenodd" clip-rule="evenodd" d="M0.737405 5.46016C0.36388 8.93069 0.38053 12.9333 0.900295 16.3898C1.18789 18.3023 2.74879 19.7685 4.67554 19.936L6.68919 20.111C10.8879 20.476 15.1104 20.476 19.3091 20.111L21.3228 19.936C23.2495 19.7685 24.8104 18.3023 25.098 16.3898C25.6178 12.9333 25.6345 8.93091 25.2609 5.46037C25.2126 5.05802 25.1583 4.65621 25.098 4.25508C24.8104 2.34256 23.2495 0.876366 21.3228 0.708876L19.3091 0.533834C15.1104 0.168847 10.8879 0.168847 6.68919 0.533834L4.67554 0.708877C2.74878 0.876366 1.18789 2.34256 0.900295 4.25508C0.839984 4.65614 0.785688 5.05788 0.737405 5.46016ZM6.86239 2.52632C10.9459 2.17135 15.0524 2.17135 19.1359 2.52632L21.1496 2.70136C22.1553 2.78879 22.9701 3.55415 23.1203 4.55249C23.1358 4.65617 23.151 4.75989 23.1658 4.86366L15.7511 8.98292C14.0396 9.93373 11.9586 9.93373 10.2471 8.98292L2.83255 4.86371C2.8473 4.75992 2.86247 4.65618 2.87806 4.55249C3.02818 3.55415 3.84297 2.78879 4.84875 2.70136L6.86239 2.52632ZM23.4105 7.01561C23.6691 10.0393 23.5724 13.0857 23.1203 16.0924C22.9701 17.0907 22.1553 17.8561 21.1496 17.9435L19.1359 18.1185C15.0525 18.4735 10.9459 18.4735 6.86239 18.1185L4.84875 17.9435C3.84297 17.8561 3.02818 17.0907 2.87806 16.0924C2.42594 13.0858 2.32919 10.0393 2.58782 7.01566L9.27584 10.7312C11.5914 12.0176 14.4069 12.0176 16.7224 10.7312L23.4105 7.01561Z" fill="#036C5F"/>
</svg>
