<svg width="25" height="25" viewBox="0 0 25 25" fill="none" xmlns="http://www.w3.org/2000/svg">
<path fill-rule="evenodd" clip-rule="evenodd" d="M3.7873 9.79945C6.17038 14.9886 10.411 19.1142 15.6827 21.3497L15.6994 21.3567L16.7178 21.8106C18.0146 22.3884 19.5389 21.9781 20.3704 20.8273L22.0696 18.4756C22.1733 18.332 22.1466 18.1322 22.0087 18.021L19.0423 15.6279C18.8949 15.509 18.678 15.5367 18.5652 15.6889L17.4108 17.2467C17.1304 17.6251 16.624 17.7565 16.195 17.5624C12.2532 15.7785 9.08554 12.6109 7.30163 8.66898C7.10748 8.23997 7.23894 7.73363 7.61728 7.45326L9.17512 6.29878C9.32734 6.18597 9.35505 5.96913 9.23608 5.82167L6.84269 2.85495C6.73145 2.71706 6.53179 2.69028 6.38815 2.79398L4.02376 4.50085C2.86538 5.3371 2.45743 6.87423 3.04871 8.17483L3.7865 9.79772C3.78677 9.79829 3.78703 9.79887 3.7873 9.79945ZM14.8935 23.1874C9.16547 20.7559 4.55832 16.2719 1.96893 10.6322L1.96737 10.6288L1.22803 9.00255C0.242565 6.83489 0.92247 4.27301 2.85311 2.87926L5.2175 1.17238C6.223 0.446502 7.62063 0.633975 8.3993 1.59917L10.7927 4.56589C11.6254 5.59812 11.4315 7.11598 10.3659 7.90563L9.47325 8.56717C10.9811 11.493 13.371 13.8829 16.2968 15.3908L16.9584 14.4981C17.748 13.4325 19.2659 13.2386 20.2981 14.0713L23.2644 16.4644C24.2299 17.2433 24.4172 18.6415 23.6907 19.6469L21.9915 21.9986C20.6057 23.9166 18.0652 24.6005 15.9038 23.6375L14.8935 23.1874Z" fill="#036C5F"/>
</svg>
