<svg version="1.2" xmlns="http://www.w3.org/2000/svg" viewBox="0 0 23 5" width="23" height="5">
	<title>image</title>
	<style>
		.s0 { fill: #c4c4c4 } 
	</style>
	<path id="Layer" class="s0" d="m23 2.5c0 1.4-1.1 2.5-2.5 2.5-1.4 0-2.5-1.1-2.5-2.5 0-1.4 1.1-2.5 2.5-2.5 1.4 0 2.5 1.1 2.5 2.5z"/>
	<path id="Layer" class="s0" d="m14 2.5c0 1.4-1.1 2.5-2.5 2.5-1.4 0-2.5-1.1-2.5-2.5 0-1.4 1.1-2.5 2.5-2.5 1.4 0 2.5 1.1 2.5 2.5z"/>
	<path id="Layer" class="s0" d="m5 2.5c0 1.4-1.1 2.5-2.5 2.5-1.4 0-2.5-1.1-2.5-2.5 0-1.4 1.1-2.5 2.5-2.5 1.4 0 2.5 1.1 2.5 2.5z"/>
</svg>